<svg width="240" height="41" viewBox="0 0 240 41" fill="none" xmlns="http://www.w3.org/2000/svg">
<path d="M85.1834 15.3676C84.5449 14.5468 83.7241 13.9084 82.6753 13.4979C81.6264 13.0419 80.304 12.8139 78.708 12.8139C77.9783 12.8139 77.2031 12.9051 76.4735 13.0419C75.6983 13.1787 75.0142 13.3611 74.3302 13.6348V3.42004L70.7733 4.05846V33.2889H74.3302V16.6444C74.467 16.5988 74.6494 16.5076 74.9686 16.462C75.2422 16.3708 75.6071 16.3252 75.9719 16.234C76.3367 16.1884 76.7471 16.0972 77.1575 16.0516C77.5679 16.006 77.9783 15.9604 78.3431 15.9604C79.3008 15.9604 80.076 16.0972 80.7144 16.3252C81.3528 16.5532 81.8544 16.9637 82.2649 17.5109C82.6297 18.0581 82.9033 18.7421 83.0857 19.6085C83.2681 20.475 83.3137 21.5238 83.3137 22.755V33.1977H86.8706V22.0254C86.8706 20.6574 86.7338 19.4261 86.5058 18.2861C86.2322 17.1461 85.8218 16.1884 85.1834 15.3676Z" fill="#F08717"/>
<path d="M64.5259 30.0058C63.3859 30.3706 61.9723 30.553 60.2394 30.553C58.7346 30.553 57.4577 30.2794 56.3177 29.7778C55.2232 29.2762 54.2656 28.5465 53.536 27.5889C52.8064 26.6769 52.2136 25.5368 51.8487 24.2144C51.4839 22.892 51.3015 21.4783 51.3015 19.8823C51.3015 18.2406 51.5295 16.7814 51.94 15.4589C52.3504 14.1365 52.9888 12.9965 53.764 12.0844C54.5392 11.1724 55.5425 10.4428 56.6369 9.98678C57.7769 9.48517 59.0538 9.25716 60.4674 9.25716C61.1514 9.25716 61.7898 9.30276 62.4283 9.43957C63.0667 9.57637 63.7051 9.71317 64.2523 9.89558C64.7995 10.078 65.3012 10.2604 65.7116 10.4428C66.1676 10.6252 66.4868 10.8076 66.7148 10.9444L67.8092 7.88912C67.6724 7.79792 67.3532 7.61551 66.9428 7.4331C66.5324 7.2051 65.9852 7.02269 65.3468 6.84029C64.7083 6.65788 63.9331 6.47548 63.0211 6.29307C62.1547 6.15627 61.1514 6.06506 60.057 6.06506C58.3241 6.06506 56.6825 6.38427 55.132 6.97709C53.5816 7.56991 52.2592 8.48194 51.0735 9.66757C49.9335 10.8532 49.0215 12.3125 48.3374 14.0453C47.6534 15.7782 47.3342 17.739 47.3342 19.9735C47.3342 22.2079 47.6534 24.1688 48.2462 25.9017C48.8391 27.6345 49.7055 29.0938 50.7999 30.2794C51.8943 31.465 53.2168 32.3771 54.7672 32.9699C56.3177 33.5627 58.0049 33.8819 59.8746 33.8819C60.969 33.8819 61.9722 33.8363 62.8843 33.6995C63.7963 33.5627 64.6171 33.4259 65.3011 33.2435C65.9852 33.0611 66.578 32.8787 67.034 32.6963C67.49 32.5139 67.8092 32.3315 67.9916 32.1946L67.034 29.1394C66.4868 29.3218 65.666 29.641 64.5259 30.0058Z" fill="#F08717"/>
<path d="M145.742 18.9702C145.286 17.6934 144.648 16.5533 143.781 15.6413C142.96 14.7293 141.957 13.9997 140.817 13.4981C139.677 12.9964 138.4 12.7684 137.032 12.7684C135.664 12.7684 134.433 12.9964 133.247 13.4981C132.107 13.9997 131.104 14.7293 130.283 15.6413C129.462 16.5533 128.824 17.6934 128.322 18.9702C127.866 20.2471 127.638 21.7063 127.638 23.2567C127.638 24.8528 127.866 26.2664 128.322 27.5433C128.778 28.8201 129.417 29.9145 130.283 30.8722C131.104 31.7842 132.107 32.5138 133.247 33.0154C134.387 33.5171 135.664 33.7451 137.032 33.7451C138.4 33.7451 139.631 33.5171 140.817 33.0154C141.957 32.5138 142.96 31.7842 143.781 30.8722C144.602 29.9601 145.24 28.8657 145.742 27.5433C146.198 26.2664 146.426 24.8072 146.426 23.2567C146.426 21.6607 146.198 20.2471 145.742 18.9702ZM141.182 28.5921C140.179 29.9145 138.811 30.553 137.032 30.553C135.299 30.553 133.931 29.9145 132.882 28.5921C131.879 27.2697 131.378 25.4912 131.378 23.2111C131.378 20.9767 131.879 19.1526 132.882 17.8302C133.886 16.5077 135.254 15.8693 137.032 15.8693C138.765 15.8693 140.133 16.5533 141.182 17.8302C142.185 19.1526 142.687 20.9311 142.687 23.2111C142.687 25.4912 142.185 27.2697 141.182 28.5921Z" fill="#F08717"/>
<path d="M124.446 30.2793C123.671 30.4617 122.804 30.5529 121.847 30.5529C120.661 30.5529 119.658 30.3705 118.837 30.0513C118.016 29.6865 117.332 29.2305 116.831 28.5921C116.283 27.9536 115.919 27.1784 115.691 26.2664C115.463 25.3544 115.326 24.3967 115.326 23.3023C115.326 20.8854 115.873 19.0614 116.922 17.7845C117.971 16.5077 119.521 15.9149 121.528 15.9149C122.303 15.9149 123.078 16.0061 123.762 16.1429C124.446 16.2797 125.085 16.5077 125.632 16.7357L126.453 13.6804C125.632 13.3612 124.765 13.0876 123.853 12.9508C122.941 12.814 122.075 12.7228 121.163 12.7228C119.704 12.7228 118.381 12.9964 117.196 13.498C116.01 14.0452 115.007 14.7748 114.186 15.6869C113.365 16.6445 112.727 17.7389 112.271 19.0158C111.815 20.2926 111.587 21.7062 111.587 23.2567C111.587 24.8071 111.769 26.2208 112.179 27.452C112.59 28.7289 113.228 29.8233 114.049 30.7353C114.87 31.6473 115.919 32.377 117.104 32.8786C118.336 33.3802 119.749 33.6538 121.345 33.6538C121.847 33.6538 122.394 33.6082 122.941 33.5626C123.489 33.517 123.99 33.4258 124.492 33.3346C124.993 33.2434 125.404 33.1522 125.814 33.0154C126.179 32.8786 126.498 32.7874 126.681 32.6506L126.179 29.6409C125.814 29.9145 125.221 30.0969 124.446 30.2793Z" fill="#F08717"/>
<path d="M106.388 15.6413C105.567 14.7293 104.564 13.9997 103.424 13.4981C102.284 12.9964 101.007 12.7684 99.639 12.7684C98.2709 12.7684 97.0397 12.9964 95.8541 13.4981C94.714 13.9997 93.7108 14.7293 92.89 15.6413C92.0692 16.5533 91.4307 17.6934 90.9291 18.9702C90.4731 20.2471 90.2451 21.7063 90.2451 23.2567C90.2451 24.8528 90.4731 26.2664 90.9291 27.5433C91.3851 28.8201 92.0235 29.9145 92.89 30.8722C93.7108 31.7842 94.714 32.5138 95.8541 33.0154C96.9941 33.5171 98.2709 33.7451 99.639 33.7451C101.007 33.7451 102.238 33.5171 103.424 33.0154C104.564 32.5138 105.567 31.7842 106.388 30.8722C107.209 29.9601 107.847 28.8657 108.349 27.5433C108.805 26.2664 109.033 24.8072 109.033 23.2567C109.033 21.7063 108.805 20.2471 108.349 18.9702C107.847 17.6478 107.209 16.5533 106.388 15.6413ZM103.789 28.5921C102.785 29.9145 101.417 30.553 99.639 30.553C97.9061 30.553 96.5381 29.9145 95.4893 28.5921C94.486 27.2697 93.9844 25.4912 93.9844 23.2111C93.9844 20.9767 94.486 19.1526 95.4893 17.8302C96.4925 16.5077 97.8605 15.8693 99.639 15.8693C101.372 15.8693 102.74 16.5533 103.789 17.8302C104.792 19.1526 105.294 20.9311 105.294 23.2111C105.294 25.4912 104.792 27.2697 103.789 28.5921Z" fill="#F08717"/>
<path d="M153.494 13.27H161.064V16.2797H153.494V25.4912C153.494 26.4944 153.585 27.3152 153.722 27.9536C153.859 28.5921 154.087 29.1393 154.406 29.5041C154.725 29.8689 155.09 30.1425 155.546 30.2793C156.002 30.4161 156.55 30.5073 157.142 30.5073C158.237 30.5073 159.103 30.3705 159.742 30.1425C160.38 29.9145 160.836 29.7321 161.11 29.6409L161.794 32.605C161.429 32.7874 160.79 33.0154 159.924 33.289C159.012 33.5626 158.009 33.6994 156.869 33.6994C155.501 33.6994 154.406 33.517 153.494 33.1978C152.628 32.833 151.898 32.3314 151.351 31.6474C150.804 30.9633 150.439 30.0969 150.211 29.0937C149.983 28.0905 149.892 26.9048 149.892 25.5824V7.66104L153.449 7.06822V13.27H153.494ZM171.644 12.814C171.963 12.814 172.328 12.814 172.692 12.8596C173.103 12.9052 173.468 12.9508 173.878 12.9964C174.243 13.042 174.608 13.1332 174.927 13.1788C175.246 13.2244 175.474 13.3156 175.656 13.3612L175.064 16.4621C174.79 16.3709 174.334 16.2341 173.65 16.0973C173.012 15.9605 172.145 15.8693 171.142 15.8693C170.458 15.8693 169.819 15.9605 169.181 16.0973C168.543 16.2341 168.087 16.3253 167.904 16.3709V33.1978H164.347V14.0452C165.214 13.726 166.263 13.4524 167.494 13.1788C168.679 12.9508 170.093 12.814 171.644 12.814ZM184.549 30.6897C185.415 30.6897 186.145 30.6897 186.783 30.6441C187.422 30.5985 187.969 30.5529 188.425 30.4161V24.4423C188.151 24.3055 187.741 24.2143 187.194 24.1231C186.601 24.0319 185.917 23.9863 185.096 23.9863C184.549 23.9863 184.002 24.0319 183.363 24.1231C182.77 24.2143 182.223 24.3511 181.721 24.6248C181.22 24.8528 180.809 25.2176 180.49 25.628C180.171 26.0384 179.989 26.6312 179.989 27.3152C179.989 28.5921 180.399 29.5041 181.22 30.0057C182.041 30.4161 183.135 30.6897 184.549 30.6897ZM184.23 12.7684C185.643 12.7684 186.874 12.9508 187.878 13.3156C188.881 13.6804 189.656 14.2276 190.249 14.9117C190.842 15.5957 191.298 16.4165 191.526 17.3285C191.799 18.2862 191.891 19.2894 191.891 20.4294V32.9242C191.571 32.9698 191.161 33.061 190.614 33.1522C190.067 33.2434 189.428 33.3346 188.744 33.3802C188.06 33.4714 187.285 33.517 186.51 33.6082C185.689 33.6538 184.914 33.6994 184.093 33.6994C182.953 33.6994 181.904 33.5626 180.992 33.3346C180.034 33.1066 179.213 32.7418 178.529 32.2402C177.845 31.7386 177.298 31.1001 176.933 30.2793C176.569 29.4585 176.341 28.4553 176.341 27.3152C176.341 26.2208 176.569 25.2632 177.025 24.4879C177.481 23.7127 178.073 23.0287 178.849 22.5727C179.624 22.0711 180.536 21.7063 181.539 21.4783C182.542 21.2502 183.637 21.1134 184.777 21.1134C185.142 21.1134 185.506 21.1134 185.871 21.159C186.236 21.2046 186.601 21.2502 186.966 21.2959C187.33 21.3415 187.604 21.4327 187.878 21.4783C188.151 21.5239 188.334 21.5695 188.425 21.6151V20.6118C188.425 20.019 188.379 19.4262 188.242 18.879C188.106 18.2862 187.878 17.7845 187.558 17.3285C187.239 16.8725 186.783 16.5077 186.19 16.2341C185.598 15.9605 184.868 15.8237 183.956 15.8237C182.77 15.8237 181.721 15.9149 180.855 16.0517C179.989 16.2341 179.305 16.3709 178.894 16.5533L178.484 13.5892C178.94 13.4068 179.715 13.1788 180.809 12.9964C181.813 12.8596 182.998 12.7684 184.23 12.7684ZM211.545 13.27C210.542 17.0093 209.356 20.6118 208.033 24.0319C206.665 27.452 205.389 30.5529 204.112 33.2434H200.874C199.597 30.5073 198.32 27.452 196.952 24.0319C195.584 20.6118 194.444 17.0093 193.441 13.27H197.272C197.591 14.5468 197.956 15.8693 198.366 17.2829C198.776 18.6966 199.232 20.1102 199.734 21.5239C200.19 22.9375 200.692 24.2599 201.193 25.5824C201.695 26.9048 202.151 28.0449 202.561 29.0937C203.017 28.0449 203.473 26.9048 203.929 25.5824C204.431 24.2599 204.887 22.9375 205.389 21.5239C205.845 20.1102 206.301 18.6966 206.757 17.2829C207.167 15.8693 207.532 14.5012 207.851 13.27H211.545ZM212.274 23.3023C212.274 21.5239 212.548 19.9734 213.05 18.651C213.551 17.3285 214.235 16.2341 215.102 15.3677C215.968 14.5012 216.926 13.8628 218.02 13.4068C219.115 12.9508 220.255 12.7684 221.395 12.7684C224.085 12.7684 226.137 13.5892 227.596 15.2765C229.056 16.9637 229.74 19.5174 229.74 22.9375C229.74 23.0743 229.74 23.3023 229.74 23.5303C229.74 23.7583 229.74 23.9863 229.694 24.2143H216.014C216.15 26.312 216.789 27.8624 217.838 28.9569C218.887 30.0513 220.528 30.5529 222.763 30.5529C224.04 30.5529 225.088 30.4617 225.955 30.2337C226.821 30.0057 227.46 29.8233 227.916 29.5953L228.417 32.605C227.961 32.833 227.232 33.061 226.137 33.3346C225.043 33.6082 223.812 33.6994 222.443 33.6994C220.711 33.6994 219.206 33.4258 217.929 32.9242C216.652 32.377 215.603 31.693 214.782 30.7353C213.962 29.8233 213.369 28.7289 212.958 27.452C212.457 26.1752 212.274 24.8072 212.274 23.3023ZM226 21.3415C226.046 19.7454 225.636 18.3774 224.769 17.3741C223.948 16.3253 222.808 15.8237 221.349 15.8237C220.528 15.8237 219.799 16.0061 219.16 16.3253C218.522 16.6445 218.02 17.0549 217.564 17.5565C217.108 18.0582 216.789 18.651 216.561 19.335C216.333 20.019 216.15 20.703 216.059 21.3871H226V21.3415ZM239.544 33.6538C237.355 33.6082 235.759 33.1066 234.847 32.2402C233.935 31.3281 233.479 29.9601 233.479 28.0449V4.01293L237.036 3.37451V27.4064C237.036 27.9993 237.082 28.5009 237.173 28.8657C237.264 29.2305 237.446 29.5497 237.674 29.7777C237.902 30.0057 238.222 30.1881 238.586 30.2793C238.951 30.4161 239.453 30.5073 240 30.5529L239.544 33.6538Z" fill="#3D80BD"/>
<path d="M40.3572 6.7034C40.3572 3.00969 37.3475 0 33.6082 0H6.7034C3.00969 0 0 3.00969 0 6.7034V33.6082C0 37.3019 3.00969 40.3116 6.7034 40.3116H33.6082C37.3019 40.3116 40.3572 37.3019 40.3572 33.6082V6.7034Z" fill="#3D80BD"/>
<path d="M29.6409 19.0613C29.3217 18.7421 28.7745 18.7421 28.4553 19.0613L28.2273 19.2893L27.8624 16.0972C32.0122 11.9475 33.973 9.1202 32.605 7.79776C31.2825 6.47532 28.4097 8.39058 24.2599 12.5403L21.0222 12.1755L21.2502 11.9475C21.5695 11.6283 21.5695 11.0811 21.2502 10.7618L20.6574 10.169C20.3382 9.84982 19.791 9.84982 19.4718 10.169L17.7845 11.8563L6.5666 10.5794C6.521 10.5794 6.4298 10.5794 6.3842 10.5794C6.15619 10.5794 5.92818 10.6706 5.79138 10.8074L5.19856 11.4003C4.87935 11.7195 4.87935 12.2667 5.19856 12.5859C5.28976 12.6771 5.47217 12.7683 5.60897 12.8139L18.879 17.9213C18.7878 18.0125 18.7422 18.1037 18.6966 18.2405C18.3774 19.2437 13.5436 24.4879 13.5436 24.4879L13.498 24.5335L8.25385 24.1687C8.02584 24.1687 7.84344 24.2599 7.66103 24.3967L7.02261 25.0351C6.7034 25.3543 6.7034 25.9015 7.02261 26.2207C7.15942 26.3119 7.29622 26.4031 7.43303 26.4487L11.4915 27.7256L11.2179 27.9992C11.0811 28.136 10.9899 28.364 10.9899 28.592C10.9899 29.048 11.3547 29.4584 11.8108 29.4584C12.0388 29.4584 12.2668 29.3672 12.4036 29.2304L12.6772 28.9568L13.954 33.0153C13.9996 33.1521 14.0452 33.2889 14.182 33.4257C14.5012 33.7449 15.0485 33.7449 15.3677 33.4257L16.0061 32.7873C16.1429 32.6049 16.2341 32.3769 16.2341 32.1945L15.9605 26.8135L16.0061 26.7679C16.0061 26.7679 21.2502 21.9342 22.2535 21.615C22.3903 21.5694 22.4815 21.5238 22.5727 21.4326L27.68 34.7026C27.7256 34.8394 27.7712 34.9762 27.908 35.113C28.2273 35.4322 28.7745 35.4322 29.0937 35.113L29.6865 34.5202C29.8233 34.3834 29.9145 34.1554 29.9145 33.9273C29.9145 33.8817 29.9145 33.7905 29.9145 33.7449L28.6377 22.527L30.2793 20.8854C30.5985 20.5661 30.5985 20.0189 30.2793 19.6997L29.6409 19.0613Z" fill="white"/>
</svg>