<?xml version="1.0" encoding="UTF-8" standalone="no"?>
<svg width="14px" height="16px" viewBox="0 0 14 16" version="1.1" xmlns="http://www.w3.org/2000/svg" xmlns:xlink="http://www.w3.org/1999/xlink">
    <!-- Generator: Sketch 3.6.1 (26313) - http://www.bohemiancoding.com/sketch -->
    <title>Combined Shape</title>
    <desc>Created with Sketch.</desc>
    <defs></defs>
    <g id="Page-1" stroke="none" stroke-width="1" fill="none" fill-rule="evenodd">
        <g id="Главная-страница" transform="translate(-937.000000, -85.000000)" fill="#42A7D4">
            <g id="Пункт-Гостиницы" transform="translate(919.000000, 85.000000)">
                <path d="M18.6969697,16 L24.6666667,16 L24.6666667,14.6060606 L24.3636364,14.6060606 L24.3636364,12 L25.2727273,12 L25.2727273,16 L26.6666667,16 L26.6666667,12 L27.5757576,12 L27.5757576,14.6060606 L27.3333333,14.6060606 L27.3333333,16 L30.6363636,16 L31.3333333,16 L31.3333333,3.3030303 L31.3333333,2.60606061 L21.3636364,2.60606061 L20.6666667,2.60606061 L20.6666667,10.6060606 L19.3333333,10.6060606 L19.3333333,11.8787879 L18,11.8787879 L18,16 L18.6969697,16 Z M22.969697,10.6060606 L22.969697,9.33333333 L22.0606061,9.33333333 L22.0606061,10.6060606 L22.969697,10.6060606 Z M22.969697,12 L22.969697,14.6060606 L22.0606061,14.6060606 L22.0606061,12 L22.969697,12 Z M24.3636364,10.6060606 L24.3636364,9.33333333 L25.2727273,9.33333333 L25.2727273,10.6060606 L24.3636364,10.6060606 Z M27.5757576,10.6060606 L27.5757576,9.33333333 L26.6666667,9.33333333 L26.6666667,10.6060606 L27.5757576,10.6060606 Z M29.9393939,10.6060606 L29.9393939,9.33333333 L28.969697,9.33333333 L28.969697,10.6060606 L29.9393939,10.6060606 Z M29.9393939,12 L29.9393939,14.6060606 L28.969697,14.6060606 L28.969697,12 L29.9393939,12 Z M22.969697,7.93939394 L22.969697,6.66666667 L22.0606061,6.66666667 L22.0606061,7.93939394 L22.969697,7.93939394 Z M24.3636364,7.93939394 L24.3636364,6.66666667 L25.2727273,6.66666667 L25.2727273,7.93939394 L24.3636364,7.93939394 Z M27.5757576,7.93939394 L27.5757576,6.66666667 L26.6666667,6.66666667 L26.6666667,7.93939394 L27.5757576,7.93939394 Z M29.9393939,7.93939394 L29.9393939,6.66666667 L28.969697,6.66666667 L28.969697,7.93939394 L29.9393939,7.93939394 Z M22.969697,5.27272727 L22.969697,4 L22.0606061,4 L22.0606061,5.27272727 L22.969697,5.27272727 Z M24.3636364,5.27272727 L24.3636364,4 L25.2727273,4 L25.2727273,5.27272727 L24.3636364,5.27272727 Z M27.5757576,5.27272727 L27.5757576,4 L26.6666667,4 L26.6666667,5.27272727 L27.5757576,5.27272727 Z M29.9393939,5.27272727 L29.9393939,4 L28.969697,4 L28.969697,5.27272727 L29.9393939,5.27272727 Z M22.0606061,0 L23.4545455,0 L23.4545455,2.60606061 L22.0606061,2.60606061 L22.0606061,0 Z M24.6666667,0 L27.3333333,0 L27.3333333,2.60606061 L24.6666667,2.60606061 L24.6666667,0 Z M28.5454545,0 L29.9393939,0 L29.9393939,2.60606061 L28.5454545,2.60606061 L28.5454545,0 Z" id="Combined-Shape"></path>
            </g>
        </g>
    </g>
</svg>