<svg xmlns="http://www.w3.org/2000/svg" width="15" height="15">
    <defs>
        <filter id="a">
            <feFlood flood-color="#42A7D4" flood-opacity="1" result="floodOut"/>
            <feComposite in="floodOut" in2="SourceGraphic" operator="atop" result="compOut"/>
            <feBlend in="compOut" in2="SourceGraphic"/>
        </filter>
    </defs>
    <path fill="#4285C2" fill-rule="evenodd" d="M14.318 15.009H.682c-.377 0-.682-.338-.682-.756V7.922l6.307 1.589v1.328c0 .209.153.378.341.378h1.704c.189 0 .341-.169.341-.378V9.512L15 7.928v6.325c0 .418-.305.756-.682.756zM8.693 7.815c0-.209-.152-.378-.341-.378H6.648c-.189 0-.341.169-.341.378v.727L0 6.953V4.424c0-.417.305-.756.682-.756h13.636c.377 0 .682.339.682.756v2.535L8.693 8.543v-.728zm1.438-5.902c0-.565-.415-1.024-.924-1.024H5.793c-.509 0-.924.459-.924 1.024v.999h-.802v-.999C4.067.858 4.841 0 5.793 0h3.414c.952 0 1.725.858 1.725 1.913v.999h-.801v-.999z" filter="url(#a)"/>
</svg>
