<?xml version="1.0" encoding="UTF-8" standalone="no"?>
<svg width="16px" height="16px" viewBox="0 0 16 16" version="1.1" xmlns="http://www.w3.org/2000/svg" xmlns:xlink="http://www.w3.org/1999/xlink">
    <!-- Generator: Sketch 3.6.1 (26313) - http://www.bohemiancoding.com/sketch -->
    <title>Fill 9</title>
    <desc>Created with Sketch.</desc>
    <defs></defs>
    <g id="Page-1" stroke="none" stroke-width="1" fill="none" fill-rule="evenodd">
        <g id="Главная-страница" transform="translate(-795.000000, -85.000000)" fill="#FF8A00">
            <g id="Пункт-Авиабилеты" transform="translate(777.000000, 84.000000)">
                <g id="Group-2" transform="translate(18.000000, 0.000000)">
                    <path d="M14.0542201,7.69233161 C13.8677476,7.50545283 13.5651118,7.50545283 13.3725255,7.69233161 L13.2410776,7.83019301 L13.0393205,5.99204106 C15.4023247,3.62388863 16.5333876,2.0093785 15.7569282,1.23735468 C14.9988104,0.477585212 13.3664116,1.58353997 10.9972935,3.95781957 L9.15702366,3.74336851 L9.28847151,3.60550711 C9.48105788,3.41556474 9.48105788,3.10920609 9.28847151,2.9223273 L8.94915265,2.57614202 C8.76573706,2.39232683 8.4600444,2.39232683 8.26745802,2.57614202 L7.31981077,3.54117179 L0.9247203,2.80284743 C0.888037181,2.79672025 0.860524841,2.79059308 0.817727868,2.79059308 C0.686280024,2.79059308 0.567059886,2.84573764 0.484522868,2.93458165 L0.142147087,3.27770335 C-0.0473823625,3.46151854 -0.0473823625,3.77400437 0.142147087,3.95781957 C0.20328562,4.0190913 0.279708785,4.05891793 0.362245803,4.08342662 L7.94036687,7.01527898 C7.89145605,7.06429636 7.85782985,7.12250451 7.83337444,7.18990341 L7.83337444,7.19603059 C7.65301577,7.75666693 4.89566797,10.7559182 4.89566797,10.7559182 L4.87732641,10.7681725 L1.86319677,10.5996753 L1.85096906,10.5996753 C1.72563507,10.6058025 1.60641493,10.6548198 1.50859328,10.7436638 L1.16316058,11.1021035 C0.973631126,11.2951094 0.973631126,11.5922773 1.16316058,11.7852833 C1.22429911,11.8434914 1.30683613,11.8925088 1.38325929,11.9108903 L1.38325929,11.9170175 L3.69429581,12.6338968 L3.52922177,12.802394 L3.54144948,12.802394 C3.44362783,12.8851109 3.39166008,13.0107179 3.39166008,13.1424521 C3.39166008,13.4059206 3.60564494,13.6234352 3.87465448,13.6234352 C4.00610232,13.6234352 4.13143631,13.5682907 4.20174563,13.4855738 L4.37599044,13.3170766 L5.09742512,15.6392752 L5.09742512,15.633148 C5.12188054,15.7158649 5.16467751,15.7955181 5.22887297,15.8598534 C5.41534549,16.0528594 5.71798123,16.0528594 5.90445375,15.8598534 L6.26211416,15.507541 L6.25600031,15.507541 C6.35076503,15.4003155 6.39356201,15.2747084 6.3813343,15.1491014 L6.38744815,15.1491014 L6.23765875,12.1314686 L6.24988646,12.1253414 C6.24988646,12.1253414 9.23650376,9.35585913 9.80814903,9.17510752 C9.87540142,9.14753524 9.93959688,9.1107722 9.98239385,9.06175481 L12.9078726,16.656386 C12.9262142,16.7391028 12.9720681,16.818756 13.0393205,16.8830914 C13.225793,17.0699701 13.5284287,17.0699701 13.7149012,16.8830914 L14.0542201,16.5430332 C14.142871,16.4511257 14.2040095,16.3316458 14.2040095,16.1999116 C14.2040095,16.1662121 14.1978956,16.1294491 14.1856679,16.0988132 L13.4520056,9.66221778 L14.3996528,8.71556953 C14.5861253,8.52256358 14.5922392,8.22539568 14.3996528,8.0385169 L14.0542201,7.69233161 Z" id="Fill-9"></path>
                </g>
            </g>
        </g>
    </g>
</svg>