<?xml version="1.0" encoding="UTF-8"?>
<svg width="18px" height="16px" viewBox="0 0 18 16" version="1.1" xmlns="http://www.w3.org/2000/svg" xmlns:xlink="http://www.w3.org/1999/xlink">
    <!-- Generator: Sketch 45.2 (43514) - http://www.bohemiancoding.com/sketch -->
    <title>prokat auto icon</title>
    <desc>Created with Sketch.</desc>
    <defs></defs>
    <g id="Page-1" stroke="none" stroke-width="1" fill="none" fill-rule="evenodd">
        <g id="EXPO-2017" transform="translate(-1516.000000, -86.000000)" fill-rule="nonzero" fill="#42A7D4">
            <g id="Group-13" transform="translate(793.000000, 84.000000)">
                <g id="Пункт-Гостиницы-Copy-5" transform="translate(701.000000, 1.000000)">
                    <g id="Group-12" transform="translate(22.000000, 0.000000)">
                        <g id="certificate" transform="translate(0.000000, 1.000000)">
                            <g id="car-(2)">
                                <path d="M2,6 L3.5,1.5 L14.5,1.5 L16,6 L2,6 Z M14.5,11 C13.6715729,11 13,10.3284271 13,9.5 C13,8.67157288 13.6715729,8 14.5,8 C15.3284271,8 16,8.67157288 16,9.5 C16,10.3284271 15.3284271,11 14.5,11 L14.5,11 Z M3.5,11 C2.67157288,11 2,10.3284271 2,9.5 C2,8.67157288 2.67157288,8 3.5,8 C4.32842712,8 5,8.67157288 5,9.5 C5,10.3284271 4.32842712,11 3.5,11 L3.5,11 Z M15.92,1 C15.72,0.42 15.16,0 14.5,0 L3.5,0 C2.84,0 2.28,0.42 2.08,1 L0,7 L0,15 C0,15.5522847 0.44771525,16 1,16 L2,16 C2.55228475,16 3,15.5522847 3,15 L3,14 L15,14 L15,15 C15,15.5522847 15.4477153,16 16,16 L17,16 C17.5522847,16 18,15.5522847 18,15 L18,7 L15.92,1 Z" id="prokat-auto-icon"></path>
                            </g>
                        </g>
                    </g>
                </g>
            </g>
        </g>
    </g>
</svg>