<svg width="24" height="25" fill="none" xmlns="http://www.w3.org/2000/svg"><g clip-path="url(#clip0)" fill="#42A7D4"><path d="M13.846.891a1.608 1.608 0 00-.337 0h-3.014a1.61 1.61 0 00-1.774 1.77v1.615h.939V2.661c0-.69.333-.83.83-.83h3.02c.497 0 .83.14.83.83v1.615h.94V2.661a1.61 1.61 0 00-1.434-1.77zM18.735 14.117a4 4 0 01-2.446.723H7.726a4.226 4.226 0 01-2.446-.738c-.38-.264-.7-.607-.94-1.004a.437.437 0 000 .066v8.647c0 1.592.79 2.348 1.456 2.69a3.54 3.54 0 001.615.38h9.192c2.263 0 3.07-1.586 3.07-3.07v-8.676a.46.46 0 000-.07 3.326 3.326 0 01-.938 1.052z"/><path d="M4.64 4.98a.117.117 0 00-.117.118v4.84c0 2.967 2.451 3.197 3.202 3.197H13V4.98H4.64z"/><path d="M19.373 4.98H12v8.155h4.294c2.967 0 3.197-2.446 3.197-3.197v-4.84a.117.117 0 00-.118-.118zM3.8 20.477v-6.42c.041-.593-.277-1.12-.711-1.175H2.02c-.434.054-.753.579-.714 1.172v6.423c-.04.593.278 1.119.712 1.175h1.068c.434-.054.753-.58.714-1.172v-.003zM22.693 20.475V14.05c.038-.585-.273-1.104-.7-1.168h-1.066c-.433.054-.753.579-.713 1.172v6.424c-.038.592.28 1.115.713 1.17h1.052c.434-.055.753-.58.714-1.173z"/></g><defs><clipPath id="clip0"><path d="M0 .882h24v24H0v-24z" fill="#42A7D4"/></clipPath></defs></svg>