<svg xmlns="http://www.w3.org/2000/svg" width="17" height="16" viewBox="0 0 17 16">
    <path fill="#42A7D4" fill-rule="nonzero" d="M1.7 0C.756 0 0 .75 0 1.684v8.421c0 .93.761 1.684 1.7 1.684h6.8V16l2.55-2.526L13.6 16v-4.21h1.7c.939 0 1.7-.755 1.7-1.685V1.684C17 .754 16.239 0 15.3 0H1.7zm6.8 1.684l2.55 1.684 2.55-1.684v2.948l2.55 1.263-2.55 1.263v2.947l-2.55-1.684-2.55 1.684V7.158L5.95 5.895 8.5 4.632V1.684zm-6.8 0h4.25v1.684H1.7V1.684zm0 3.369h2.55v1.684H1.7V5.053zm0 3.368h4.25v1.684H1.7V8.421z"/>
</svg>
